<svg xmlns="http://www.w3.org/2000/svg" viewBox="0 0 340.92 209.02"><defs><style>.cls-1{fill:#39587e;}.cls-2{fill:#99b2c4;}.cls-3{fill:#a6c4e0;}</style></defs><g id="Layer_2" data-name="Layer 2"><g id="Layer_1-2" data-name="Layer 1"><path class="cls-1" d="M9.13,40.59H331.79a0,0,0,0,1,0,0V203.42a5.6,5.6,0,0,1-5.6,5.6H14.73a5.6,5.6,0,0,1-5.6-5.6V40.59A0,0,0,0,1,9.13,40.59Z"/><path class="cls-2" d="M0,8.12H340.92a0,0,0,0,1,0,0V36.32a4.26,4.26,0,0,1-4.26,4.26H4.26A4.26,4.26,0,0,1,0,36.32V8.12a0,0,0,0,1,0,0Z"/><polygon class="cls-3" points="333.79 0 7.13 0 0 8.12 340.92 8.12 333.79 0"/></g></g></svg>